<svg xmlns="http://www.w3.org/2000/svg" viewBox="0 0 970.11 1136.38"><defs><style>.cls-1{fill:#8f5eeb;}</style></defs><g id="Layer_2" data-name="Layer 2"><g id="Layer_1-2" data-name="Layer 1"><path class="cls-1" d="M923.63,189.19q-46.49-88.78-134.56-139T575.77,0H41.63C10,0-10.07,35.9,5.26,65.15L76.32,200.81H531.17q67.74,0,111.74,24.12t65.82,67.49q21.79,43.38,21.76,101.25,0,57.3-21.76,101.25c-1.82,3.7-3.76,7.27-5.83,10.75a6.84,6.84,0,0,0-.52,6l51,131.58a6.83,6.83,0,0,1-9,8.78L582.59,585.24a6.45,6.45,0,0,0-3.61-.45,298.72,298.72,0,0,1-46.73,3.43H148.51a6.85,6.85,0,0,0-6.82,6.85v460.45a6.86,6.86,0,0,0,4.09,6.27l161.62,70.65c31.85,13.92,66.9-10.8,66.9-47.23V785.39a.3.3,0,0,1,.3-.33H569.86q126.78,0,216.26-49.36T922.83,597.89q47.26-88.5,47.28-204.22T923.63,189.19Z"/><circle class="cls-1" cx="267.46" cy="369.74" r="54.15"/><circle class="cls-1" cx="417.32" cy="420.36" r="54.15"/><circle class="cls-1" cx="567.17" cy="369.74" r="54.15"/></g></g></svg>